<svg width="67" height="68" viewBox="0 0 67 68" fill="none" xmlns="http://www.w3.org/2000/svg">
<path d="M33.5 67.8795C52.0015 67.8795 67 52.8811 67 34.3795C67 15.878 52.0015 0.879539 33.5 0.879539C14.9985 0.879539 0 15.878 0 34.3795C0 52.8811 14.9985 67.8795 33.5 67.8795Z" fill="url(#paint0_linear_20_340)"/>
<path d="M37.0622 16.8919C38.5688 15.3853 40.562 14.4604 42.6857 14.2895C48.5191 13.8199 53.7956 12.9137 58.1418 11.688C52.0201 5.04339 43.2469 0.879539 33.5 0.879539C26.5085 0.879539 20.0179 3.02196 14.6475 6.68568C11.3149 8.95921 10.877 13.7068 13.7296 16.5595C15.1494 17.9793 17.4513 17.9793 18.871 16.5595C20.2842 15.1463 22.5728 15.1388 23.9953 16.5426C24.1242 16.6697 24.2559 16.7997 24.3896 16.9317C27.9067 20.4043 33.5673 20.3868 37.0622 16.8919Z" fill="url(#paint1_linear_20_340)"/>
<path d="M33.5 25.2809C33.5 26.9448 34.873 28.2775 36.5363 28.2362C45.5507 28.0118 53.9622 26.7905 60.485 24.7409C61.9703 24.2741 63.5277 23.7072 65.0259 23.0278C64.3532 21.16 63.5206 19.3689 62.5423 17.672C61.4898 18.1433 60.2266 18.6252 58.7128 19.1009C52.6962 20.9915 44.8515 22.1185 36.3773 22.3268C34.7762 22.3663 33.5 23.6792 33.5 25.2809Z" fill="url(#paint2_linear_20_340)"/>
<path d="M33.5 0.879539C32.6152 0.879539 31.7387 0.914485 30.8712 0.981747C34.5432 1.26683 38.0492 2.14387 41.2935 3.51763C52.4667 8.24862 49.3406 24.8791 37.2131 25.2599C35.992 25.2983 34.7533 25.3179 33.4999 25.3179C20.8869 25.3179 9.75441 23.3293 3.09776 20.2959C1.11102 24.5778 0 29.3486 0 34.3795V34.4397C0.00604314 37.8486 1.29612 41.1304 3.57294 43.6673L4.44578 44.6397C5.89101 46.25 8.19252 46.7049 10.1864 45.8643C11.8744 45.1526 13.8144 45.4093 15.2585 46.5331C18.0063 48.6712 21.5723 49.4498 24.9178 48.4861L28.2087 47.5379C30.1585 46.9762 32.25 47.5311 33.6896 48.9612C34.7304 49.9954 36.1384 50.5761 37.6062 50.5761H40.1317C42.7155 50.5761 45.1742 49.5255 47.0102 47.7074C48.4038 46.3273 50.1844 45.4033 52.1158 45.0571C52.7545 44.9427 53.3755 44.8267 53.8373 44.7306C56.8942 44.0948 59.3197 47.2929 57.8571 50.0515C57.8383 50.087 57.8194 50.1224 57.8005 50.1578C57.3029 51.0879 56.4345 51.7643 55.4099 52.0153C51.3587 53.0073 46.7003 53.7027 41.7101 54.0662C39.6639 54.2154 37.6066 54.0351 35.6137 53.5473C33.6901 53.0766 31.7068 52.8972 29.73 53.0151L22.448 53.4496C21.0471 53.5331 19.6536 53.1912 18.4505 52.4685C17.9564 52.1716 17.4098 51.8432 16.8722 51.5202C15.015 50.4044 12.7438 50.2174 10.7291 51.0146C9.95331 51.3215 9.09558 51.3526 8.29959 51.1026L8.28711 51.0987C6.25294 50.4594 4.6699 49.8089 3.44511 49.188C4.96431 52.2654 6.94054 55.0765 9.28791 57.5307C16.1273 59.306 24.5949 60.2718 33.5 60.2718C33.562 60.2718 33.624 60.2718 33.686 60.2716C38.0245 60.2654 38.5932 66.5448 34.3259 67.3279C33.1932 67.5357 32.0407 67.6866 30.8712 67.7773C31.7387 67.8446 32.6152 67.8795 33.5 67.8795C52.0016 67.8795 67 52.8811 67 34.3795C67 15.878 52.0016 0.879539 33.5 0.879539Z" fill="url(#paint3_linear_20_340)"/>
<path d="M60.6855 53.9559C53.9392 56.2633 44.2577 57.71 33.5 57.71C22.7428 57.71 13.0619 56.2636 6.31561 53.9563C7.22405 55.2161 8.21684 56.4111 9.28792 57.5309C16.1273 59.306 24.5949 60.2718 33.5 60.2718C33.5619 60.2718 33.6238 60.2718 33.6856 60.2716C38.0056 60.2651 38.6174 66.5345 34.3694 67.3199C33.2228 67.5319 32.0557 67.6854 30.8712 67.7773C31.7387 67.8446 32.6152 67.8795 33.5 67.8795C44.6928 67.8795 54.602 62.3891 60.6855 53.9559Z" fill="url(#paint4_linear_20_340)"/>
<path d="M67 34.3795C67 36.0164 66.8805 37.6244 66.6532 39.1983C65.5891 39.616 64.521 39.9878 63.4845 40.3149C55.4287 42.8465 44.7797 44.2404 33.5 44.2404C31.18 44.2404 28.8875 44.1812 26.6397 44.0643C25.1079 43.9855 23.9098 42.7151 23.9098 41.182C23.9098 39.708 22.7997 38.4692 21.3349 38.3128C15.8291 37.7282 10.7699 36.7442 6.51478 35.4069C4.37603 34.7342 2.08752 33.8554 0.0420532 32.7308C0.149779 30.529 0.4677 28.3824 0.980053 26.3133C1.63429 26.8415 3.65519 27.8419 5.01332 28.4881C5.87841 28.8997 6.62894 29.5165 7.20173 30.2845L7.43215 30.5935C8.91193 32.5775 11.4738 33.4252 13.8448 32.7154C15.3962 32.251 17.0732 32.4911 18.432 33.3719L19.0201 33.7532C20.432 34.6684 22.265 34.6059 23.6111 33.5963C24.3775 33.0215 25.3235 32.7422 26.2796 32.8028C28.6273 32.9515 31.0439 33.0277 33.5 33.0277C43.0666 33.0277 52.0209 31.8703 58.713 29.767C62.5386 28.565 64.7706 27.3222 66.02 26.3133C66.531 28.3824 66.8529 30.5277 66.9593 32.7295C66.9856 33.276 67 33.8265 67 34.3795Z" fill="url(#paint5_linear_20_340)"/>
<path d="M49.6604 34.5246C44.7284 35.3083 39.2235 35.7235 33.5 35.7235C32.9907 35.7235 32.4831 35.7202 31.9775 35.7138C30.3329 35.6927 28.99 37.0221 28.99 38.6669V38.6704C28.99 40.2892 30.2926 41.6041 31.9112 41.625C32.4389 41.6318 32.9686 41.6353 33.5 41.6353C39.5149 41.6353 45.3309 41.194 50.5802 40.3609C52.0164 40.133 53.0745 38.8964 53.0745 37.442C53.0745 35.6268 51.4533 34.2396 49.6604 34.5246Z" fill="url(#paint6_linear_20_340)"/>
<path d="M59.6891 32.1423C59.3759 32.2488 59.0508 32.3554 58.713 32.4615C58.488 32.532 58.2603 32.6017 58.0301 32.6703C56.7779 33.0432 55.9187 34.1944 55.9187 35.5011V35.5045C55.9187 37.4795 57.821 38.9003 59.7139 38.3371C59.9739 38.2598 60.231 38.1812 60.4852 38.1013C60.852 37.9864 61.223 37.8651 61.5962 37.7377C62.7878 37.3307 63.5843 36.2046 63.5843 34.9455V34.9423C63.5843 32.9229 61.6008 31.4916 59.6891 32.1423Z" fill="url(#paint7_linear_20_340)"/>
<path d="M58.7129 19.101C54.8401 20.3181 50.2089 21.218 45.1408 21.7608C43.2738 23.7836 40.593 25.1539 37.2115 25.2602C35.9913 25.2985 34.7535 25.3181 33.5011 25.3181C33.5213 26.9646 34.8856 28.2774 36.5365 28.2363C45.5509 28.0119 53.9624 26.7907 60.4852 24.741C61.9705 24.2742 63.5279 23.7074 65.026 23.0279C64.3534 21.1602 63.5208 19.369 62.5424 17.6721C61.4899 18.1433 60.2266 18.6253 58.7129 19.101Z" fill="url(#paint8_linear_20_340)"/>
<path d="M30.8741 0.98201C34.5443 1.26722 38.0485 2.14387 41.2915 3.51684C45.9867 5.50451 48.1562 9.59361 48.1948 13.6953C51.8567 13.1952 55.2112 12.5144 58.1418 11.688C52.0201 5.04339 43.2469 0.879539 33.5 0.879539C32.6163 0.879539 31.7407 0.914879 30.8741 0.98201Z" fill="url(#paint9_linear_20_340)"/>
<defs>
<linearGradient id="paint0_linear_20_340" x1="-1.08514" y1="34.3795" x2="66.7553" y2="34.3795" gradientUnits="userSpaceOnUse">
<stop stop-color="#60B7FF"/>
<stop offset="0.5857" stop-color="#0182FC"/>
<stop offset="1" stop-color="#2740B0"/>
</linearGradient>
<linearGradient id="paint1_linear_20_340" x1="-13.0059" y1="10.2021" x2="63.4934" y2="10.2021" gradientUnits="userSpaceOnUse">
<stop stop-color="#60B7FF"/>
<stop offset="0.5857" stop-color="#0182FC"/>
<stop offset="1" stop-color="#2740B0"/>
</linearGradient>
<linearGradient id="paint2_linear_20_340" x1="20.6255" y1="22.9546" x2="59.1196" y2="22.9546" gradientUnits="userSpaceOnUse">
<stop stop-color="#60B7FF"/>
<stop offset="0.5857" stop-color="#0182FC"/>
<stop offset="1" stop-color="#2740B0"/>
</linearGradient>
<linearGradient id="paint3_linear_20_340" x1="-14.6924" y1="34.3795" x2="61.5718" y2="34.3795" gradientUnits="userSpaceOnUse">
<stop stop-color="#60B7FF"/>
<stop offset="0.5857" stop-color="#0182FC"/>
<stop offset="1" stop-color="#2740B0"/>
</linearGradient>
<linearGradient id="paint4_linear_20_340" x1="-30.8725" y1="60.9177" x2="55.4876" y2="60.9177" gradientUnits="userSpaceOnUse">
<stop stop-color="#60B7FF"/>
<stop offset="0.5857" stop-color="#0182FC"/>
<stop offset="1" stop-color="#2740B0"/>
</linearGradient>
<linearGradient id="paint5_linear_20_340" x1="-14.32" y1="35.2768" x2="78.4787" y2="35.2768" gradientUnits="userSpaceOnUse">
<stop stop-color="#60B7FF"/>
<stop offset="0.5857" stop-color="#0182FC"/>
<stop offset="1" stop-color="#2740B0"/>
</linearGradient>
<linearGradient id="paint6_linear_20_340" x1="-13.7504" y1="38.0613" x2="59.9122" y2="38.0613" gradientUnits="userSpaceOnUse">
<stop stop-color="#60B7FF"/>
<stop offset="0.5857" stop-color="#0182FC"/>
<stop offset="1" stop-color="#2740B0"/>
</linearGradient>
<linearGradient id="paint7_linear_20_340" x1="-13.7504" y1="35.2224" x2="59.9122" y2="35.2224" gradientUnits="userSpaceOnUse">
<stop stop-color="#60B7FF"/>
<stop offset="0.5857" stop-color="#0182FC"/>
<stop offset="1" stop-color="#2740B0"/>
</linearGradient>
<linearGradient id="paint8_linear_20_340" x1="-45.0607" y1="22.9546" x2="60.4867" y2="22.9546" gradientUnits="userSpaceOnUse">
<stop stop-color="#60B7FF"/>
<stop offset="0.5857" stop-color="#0182FC"/>
<stop offset="1" stop-color="#2740B0"/>
</linearGradient>
<linearGradient id="paint9_linear_20_340" x1="-0.788218" y1="7.28737" x2="56.2281" y2="7.28737" gradientUnits="userSpaceOnUse">
<stop stop-color="#60B7FF"/>
<stop offset="0.5857" stop-color="#0182FC"/>
<stop offset="1" stop-color="#2740B0"/>
</linearGradient>
</defs>
</svg>
