<svg width="37" height="37" viewBox="0 0 37 37" fill="none" xmlns="http://www.w3.org/2000/svg">
<path d="M6.97075 33.1303C6.97075 31.2439 5.407 29.7146 3.52058 29.7146C1.59566 29.7146 0 31.2751 0 33.2V33.393C0 34.2292 0.338961 35.0312 0.942317 35.6225C1.54567 36.2138 2.364 36.546 3.21727 36.546H3.55508C5.4415 36.546 6.97075 35.0167 6.97075 33.1303Z" fill="white" fill-opacity="0.93"/>
<path d="M37 33.2C37 31.2751 35.4043 29.7146 33.4794 29.7146C31.593 29.7146 30.0293 31.2439 30.0293 33.1303C30.0293 35.0167 31.5585 36.546 33.4449 36.546H33.7827C34.636 36.546 35.4543 36.2138 36.0577 35.6225C36.661 35.0312 37 34.2292 37 33.393V33.2Z" fill="white" fill-opacity="0.93"/>
<path d="M6.97075 18.273C6.97075 16.3866 5.44151 14.8573 3.55508 14.8573H3.41567C1.52925 14.8573 0 16.3866 0 18.273C0 20.1594 1.52925 21.6887 3.41567 21.6887H3.55508C5.4415 21.6887 6.97075 20.1594 6.97075 18.273Z" fill="white" fill-opacity="0.93"/>
<path d="M37 18.273C37 16.3866 35.4708 14.8573 33.5843 14.8573H33.4449C31.5585 14.8573 30.0293 16.3866 30.0293 18.273C30.0293 20.1594 31.5585 21.6887 33.4449 21.6887H33.5843C35.4708 21.6887 37 20.1594 37 18.273Z" fill="white" fill-opacity="0.93"/>
<path d="M6.97075 3.41567C6.97075 1.52925 5.4415 0 3.55508 0H3.21727C2.364 0 1.54567 0.332182 0.942317 0.92347C0.338961 1.51476 0 2.31672 0 3.15293L0 3.34596C0 5.27088 1.59566 6.83134 3.52058 6.83134C5.407 6.83134 6.97075 5.30209 6.97075 3.41567Z" fill="white" fill-opacity="0.93"/>
<path d="M21.9854 33.1303C21.9854 31.2439 20.4561 29.7146 18.5697 29.7146H18.4303C16.5439 29.7146 15.0146 31.2439 15.0146 33.1303C15.0146 35.0167 16.5439 36.546 18.4303 36.546H18.5697C20.4561 36.546 21.9854 35.0167 21.9854 33.1303Z" fill="white" fill-opacity="0.93"/>
<path d="M21.9854 18.273C21.9854 16.3866 20.4561 14.8573 18.5697 14.8573H18.4303C16.5439 14.8573 15.0146 16.3866 15.0146 18.273C15.0146 20.1594 16.5439 21.6887 18.4303 21.6887H18.5697C20.4561 21.6887 21.9854 20.1594 21.9854 18.273Z" fill="white" fill-opacity="0.93"/>
<path d="M21.9854 3.41567C21.9854 1.52925 20.4561 0 18.5697 0H18.4303C16.5439 0 15.0146 1.52925 15.0146 3.41567C15.0146 5.30209 16.5439 6.83134 18.4303 6.83134H18.5697C20.4561 6.83134 21.9854 5.30209 21.9854 3.41567Z" fill="white" fill-opacity="0.93"/>
<path d="M33.7827 0H33.4449C31.5585 0 30.0293 1.52925 30.0293 3.41567C30.0293 5.30209 31.593 6.83134 33.4794 6.83134C35.4043 6.83134 37 5.27088 37 3.34596V3.15293C37 2.31672 36.661 1.51476 36.0577 0.92347C35.4543 0.332182 34.636 0 33.7827 0Z" fill="white" fill-opacity="0.93"/>
</svg>
