<?xml version="1.0" encoding="utf-8"?>
<!-- Generator: Adobe Illustrator 25.2.1, SVG Export Plug-In . SVG Version: 6.00 Build 0)  -->
<svg version="1.1" id="Layer_1" xmlns="http://www.w3.org/2000/svg" xmlns:xlink="http://www.w3.org/1999/xlink" x="0px" y="0px"
	 viewBox="0 0 512 512" style="enable-background:new 0 0 512 512;" xml:space="preserve">
<style type="text/css">
	.st0{fill:#FFFFFF;}
</style>
<path class="st0" d="M106.7,85.3c0-11.8,9.6-21.3,21.3-21.3h42.7V21.3C170.7,9.6,180.2,0,192,0s21.3,9.6,21.3,21.3V64H256
	c11.8,0,21.3,9.6,21.3,21.3s-9.6,21.3-21.3,21.3h-42.7v42.7c0,11.8-9.6,21.3-21.3,21.3s-21.3-9.6-21.3-21.3v-42.7H128
	C116.2,106.7,106.7,97.1,106.7,85.3z M495.7,277.7L350.5,440.6C310.1,486,252,512,191.3,512H85.3C38.3,512,0,473.7,0,426.7V320
	c0-47.1,38.3-85.3,85.3-85.3h189c24.3,0,45.6,13,57.4,32.4l68.6-75.4c11.6-12.7,27.3-20.1,44.5-20.9c17.1-1,33.6,5.1,46.3,16.7
	C516.9,211,519,251.5,495.7,277.7L495.7,277.7z M462.3,219c-4.2-3.9-9.8-5.7-15.5-5.6c-5.8,0.3-11.1,2.8-14.9,7l-94.4,103.8
	c-8.2,22.8-28.6,40.3-53.6,43.9l-110.1,15.7c-11.6,1.7-22.5-6.4-24.1-18.1c-1.7-11.7,6.4-22.5,18.1-24.1l110.1-15.7
	c11.9-1.7,20.9-12.1,20.9-24.1c0-13.4-10.9-24.4-24.4-24.4h-189c-23.5,0-42.7,19.1-42.7,42.7v106.7c0,23.5,19.1,42.7,42.7,42.7
	h105.9c48.6,0,95.1-20.8,127.4-57.1l145.2-162.9C471.7,240.5,471,226.9,462.3,219L462.3,219z"/>
</svg>
