<svg width="202" height="203" viewBox="0 0 202 203" fill="none" xmlns="http://www.w3.org/2000/svg">
<path d="M25.5471 47.9927C36.4991 47.9927 45.3775 39.1143 45.3775 28.1622C45.3775 17.2102 36.4991 8.33176 25.5471 8.33176C14.595 8.33176 5.71661 17.2102 5.71661 28.1622C5.71661 39.1143 14.595 47.9927 25.5471 47.9927Z" fill="url(#paint0_linear_20_366)"/>
<path d="M8.54736 38.3759C15.9505 27.795 25.151 18.566 35.7092 11.1332C41.4991 14.5961 45.3775 20.9251 45.3775 28.1622C45.3775 39.1142 36.499 47.9927 25.547 47.9927C18.3309 47.9927 12.0166 44.1376 8.54736 38.3759Z" fill="url(#paint1_linear_20_366)"/>
<path d="M101 202.88C156.781 202.88 202 157.66 202 101.88C202 46.0988 156.781 0.879547 101 0.879547C45.2192 0.879547 0 46.0988 0 101.88C0 157.66 45.2192 202.88 101 202.88Z" fill="url(#paint2_linear_20_366)"/>
<path d="M19.0379 160.901C37.3791 186.326 67.2545 202.88 101 202.88C134.745 202.88 164.621 186.326 182.962 160.901C162.623 167.858 133.434 172.219 101 172.219C68.5663 172.219 39.3773 167.858 19.0379 160.901Z" fill="url(#paint3_linear_20_366)"/>
<path d="M175.293 33.4661C156.837 13.4333 130.386 0.879547 101 0.879547C71.6138 0.879547 45.1632 13.4333 26.7068 33.4661C46.4073 39.0219 72.4459 42.4028 101 42.4028C129.554 42.4028 155.593 39.0215 175.293 33.4661Z" fill="url(#paint4_linear_20_366)"/>
<path d="M101 74.4479C101 79.4643 105.139 83.4825 110.154 83.3577C137.332 82.6812 162.692 78.9993 182.358 72.8197C186.836 71.4124 191.531 69.7033 196.048 67.6548C194.02 62.0238 191.51 56.6236 188.56 51.5075C185.387 52.9286 181.579 54.3814 177.015 55.8156C158.875 61.5156 135.224 64.9135 109.675 65.5413C104.848 65.6606 101 69.619 101 74.4479Z" fill="url(#paint5_linear_20_366)"/>
<path d="M101 0.879547C98.3324 0.879547 95.6898 0.984904 93.0745 1.1877C104.143 2.04679 114.711 4.69022 124.491 8.83082C158.18 23.0928 148.755 73.2371 112.19 74.385C108.51 74.5006 104.777 74.5596 101 74.5596C62.9729 74.5596 29.4092 68.5642 9.33993 59.4188C3.34964 72.3281 0 86.7117 0 101.88C0 107.928 0.533518 113.853 1.55263 119.609C19.8598 131.035 57.5138 138.874 101 138.874C123.661 138.874 144.735 136.744 162.315 133.088C171.531 131.171 178.844 140.813 174.434 149.13C174.377 149.237 174.32 149.344 174.263 149.45C172.775 152.234 170.195 154.28 167.129 155.032C148.4 159.627 125.36 162.119 101 162.119C72.158 162.119 45.1617 158.627 24.985 152.287C18.8521 150.36 14.0794 148.399 10.3868 146.527C14.967 155.805 20.9252 164.28 28.0023 171.679C48.6226 177.031 74.1518 179.943 101 179.943C101.187 179.943 101.373 179.943 101.56 179.942C114.584 179.922 116.428 198.824 103.621 201.192C100.164 201.832 96.6455 202.295 93.0745 202.571C95.6898 202.774 98.3324 202.88 101 202.88C156.781 202.88 202 157.66 202 101.88C202 46.0986 156.781 0.879547 101 0.879547Z" fill="url(#paint6_linear_20_366)"/>
<path d="M72.6142 161.019C72.6142 156.479 69.1965 152.669 64.6836 152.167C49.8797 150.518 36.3501 147.852 24.985 144.281C15.9984 141.456 9.93126 138.559 5.9071 135.978C9.15653 145.039 13.6643 153.498 19.2197 161.15L19.2213 161.151C31.7152 165.117 46.5388 168.462 62.6842 170.265C67.9762 170.856 72.6142 166.344 72.6142 161.019Z" fill="url(#paint7_linear_20_366)"/>
<path d="M64.2455 156.104C57.9233 155.4 51.8847 154.522 46.1566 153.478C43.0541 152.912 40.202 155.307 40.202 158.461C40.202 160.876 41.9059 162.964 44.276 163.429C50.4988 164.648 56.823 165.625 63.1238 166.329C63.2886 166.347 63.4553 166.356 63.6197 166.356H63.6201C64.8951 166.356 66.1308 165.803 67.1 164.797C68.0875 163.773 68.6539 162.396 68.6539 161.019C68.6535 158.497 66.7586 156.383 64.2455 156.104Z" fill="url(#paint8_linear_20_366)"/>
<path d="M182.962 160.901C162.623 167.858 133.434 172.219 101 172.219C68.5679 172.219 39.3805 167.858 19.0411 160.902C21.78 164.7 24.7731 168.303 28.0023 171.679C48.6226 177.031 74.1518 179.943 101 179.943C101.187 179.943 101.373 179.943 101.56 179.942C114.584 179.922 116.428 198.824 103.621 201.192C100.164 201.832 96.6455 202.294 93.0745 202.571C95.6898 202.774 98.3324 202.88 101 202.88C134.745 202.88 164.621 186.326 182.962 160.901Z" fill="url(#paint9_linear_20_366)"/>
<path d="M201.877 96.9048C201.555 90.2669 200.588 83.7994 199.045 77.5587C195.278 80.601 188.551 84.3479 177.015 87.9728C156.838 94.3133 129.842 97.8051 101 97.8051C72.158 97.8051 45.162 94.3133 24.9854 87.9732C13.4504 84.3483 6.72343 80.6022 2.95672 77.5599C1.41241 83.8002 0.450338 90.2697 0.12793 96.9072C6.29527 100.298 13.1938 102.95 19.6423 104.976C32.4709 109.008 47.7235 111.974 64.3219 113.738C68.7394 114.208 72.0863 117.946 72.0863 122.389C72.0863 127.012 75.6985 130.842 80.3152 131.08C87.0953 131.429 94.0068 131.608 101 131.608C135.008 131.608 167.113 127.405 191.402 119.773C194.528 118.791 197.748 117.667 200.956 116.409C201.639 111.664 202 106.814 202 101.88C202 100.211 201.958 98.5529 201.877 96.9048Z" fill="url(#paint10_linear_20_366)"/>
<path d="M177.015 55.816C165.339 59.4853 151.376 62.1984 136.096 63.835C130.467 69.9334 122.385 74.0649 112.19 74.3854C108.511 74.501 104.779 74.56 101.003 74.56C101.064 79.5241 105.177 83.4821 110.155 83.3581C137.332 82.6816 162.692 78.9997 182.358 72.8201C186.836 71.4128 191.532 69.7037 196.049 67.6552C194.021 62.0242 191.51 56.624 188.561 51.5079C185.387 52.9286 181.579 54.3818 177.015 55.816Z" fill="url(#paint11_linear_20_366)"/>
<path d="M93.0832 1.18849C104.148 2.04837 114.713 4.69141 124.491 8.83082C138.646 14.8235 145.187 27.1518 145.304 39.5182C156.344 38.0103 166.458 35.9578 175.293 33.4661C156.837 13.4333 130.386 0.879547 101 0.879547C98.3356 0.879547 95.6957 0.986092 93.0832 1.18849Z" fill="url(#paint12_linear_20_366)"/>
<path d="M174.384 202.879C189.636 202.879 202 190.515 202 175.264C202 160.012 189.636 147.648 174.384 147.648C159.132 147.648 146.768 160.012 146.768 175.264C146.768 190.515 159.132 202.879 174.384 202.879Z" fill="url(#paint13_linear_20_366)"/>
<path d="M174.384 147.648C172.693 147.648 171.039 147.808 169.431 148.099C182.318 150.434 192.094 161.703 192.094 175.263C192.094 179.68 191.051 183.85 189.208 187.55C188.274 183.343 184.401 180.243 179.854 180.518C175.435 180.785 171.798 184.335 171.435 188.747C171.244 191.065 171.931 193.218 173.199 194.91C175.213 197.597 173.8 201.475 170.523 202.207C170.162 202.287 169.798 202.361 169.431 202.428C171.039 202.719 172.693 202.879 174.385 202.879C189.636 202.88 202 190.516 202 175.264C202 160.012 189.636 147.648 174.384 147.648Z" fill="url(#paint14_linear_20_366)"/>
<path d="M160.42 180.501C163.647 180.501 166.262 177.885 166.262 174.659C166.262 171.432 163.647 168.817 160.42 168.817C157.194 168.817 154.578 171.432 154.578 174.659C154.578 177.885 157.194 180.501 160.42 180.501Z" fill="url(#paint15_linear_20_366)"/>
<path d="M178.213 168.817C181.44 168.817 184.056 166.201 184.056 162.975C184.056 159.748 181.44 157.132 178.213 157.132C174.987 157.132 172.371 159.748 172.371 162.975C172.371 166.201 174.987 168.817 178.213 168.817Z" fill="url(#paint16_linear_20_366)"/>
<defs>
<linearGradient id="paint0_linear_20_366" x1="1.32014" y1="28.1622" x2="44.4127" y2="28.1622" gradientUnits="userSpaceOnUse">
<stop stop-color="#EAF6FF"/>
<stop offset="0.5213" stop-color="#D8ECFE"/>
<stop offset="1" stop-color="#B3DAFE"/>
</linearGradient>
<linearGradient id="paint1_linear_20_366" x1="-7.39361" y1="29.5631" x2="34.8624" y2="29.5631" gradientUnits="userSpaceOnUse">
<stop stop-color="#EAF6FF"/>
<stop offset="0.5213" stop-color="#D8ECFE"/>
<stop offset="1" stop-color="#B3DAFE"/>
</linearGradient>
<linearGradient id="paint2_linear_20_366" x1="-3.27161" y1="101.88" x2="201.262" y2="101.88" gradientUnits="userSpaceOnUse">
<stop stop-color="#FEF056"/>
<stop offset="0.5213" stop-color="#F4D902"/>
<stop offset="1" stop-color="#FE9738"/>
</linearGradient>
<linearGradient id="paint3_linear_20_366" x1="-43.1726" y1="181.89" x2="236.607" y2="181.89" gradientUnits="userSpaceOnUse">
<stop stop-color="#FBC56D"/>
<stop offset="0.5841" stop-color="#FE9738"/>
<stop offset="0.9984" stop-color="#FB2B3A"/>
</linearGradient>
<linearGradient id="paint4_linear_20_366" x1="-43.1725" y1="21.6412" x2="236.607" y2="21.6412" gradientUnits="userSpaceOnUse">
<stop stop-color="#FBC56D"/>
<stop offset="0.5841" stop-color="#FE9738"/>
<stop offset="0.9984" stop-color="#FB2B3A"/>
</linearGradient>
<linearGradient id="paint5_linear_20_366" x1="-43.1725" y1="67.4342" x2="236.607" y2="67.4342" gradientUnits="userSpaceOnUse">
<stop stop-color="#FBC56D"/>
<stop offset="0.5841" stop-color="#FE9738"/>
<stop offset="0.9984" stop-color="#FB2B3A"/>
</linearGradient>
<linearGradient id="paint6_linear_20_366" x1="-44.2966" y1="101.88" x2="185.634" y2="101.88" gradientUnits="userSpaceOnUse">
<stop stop-color="#FEF056"/>
<stop offset="0.5213" stop-color="#F4D902"/>
<stop offset="1" stop-color="#FE9738"/>
</linearGradient>
<linearGradient id="paint7_linear_20_366" x1="-43.1726" y1="153.148" x2="236.607" y2="153.148" gradientUnits="userSpaceOnUse">
<stop stop-color="#FBC56D"/>
<stop offset="0.5841" stop-color="#FE9738"/>
<stop offset="0.9984" stop-color="#FB2B3A"/>
</linearGradient>
<linearGradient id="paint8_linear_20_366" x1="-7.72353" y1="159.876" x2="87.4767" y2="159.876" gradientUnits="userSpaceOnUse">
<stop stop-color="#FD8087"/>
<stop offset="0.5213" stop-color="#FB2B3A"/>
<stop offset="1" stop-color="#D90D80"/>
</linearGradient>
<linearGradient id="paint9_linear_20_366" x1="-16.9054" y1="181.89" x2="169.682" y2="181.89" gradientUnits="userSpaceOnUse">
<stop stop-color="#FBC56D"/>
<stop offset="0.5841" stop-color="#FE9738"/>
<stop offset="0.9984" stop-color="#FB2B3A"/>
</linearGradient>
<linearGradient id="paint10_linear_20_366" x1="-43.1726" y1="104.584" x2="236.607" y2="104.584" gradientUnits="userSpaceOnUse">
<stop stop-color="#FBC56D"/>
<stop offset="0.5841" stop-color="#FE9738"/>
<stop offset="0.9984" stop-color="#FB2B3A"/>
</linearGradient>
<linearGradient id="paint11_linear_20_366" x1="-50.302" y1="67.4342" x2="193.032" y2="67.4342" gradientUnits="userSpaceOnUse">
<stop stop-color="#FBC56D"/>
<stop offset="0.5841" stop-color="#FE9738"/>
<stop offset="0.9984" stop-color="#FB2B3A"/>
</linearGradient>
<linearGradient id="paint12_linear_20_366" x1="-2.37647" y1="20.1987" x2="169.524" y2="20.1987" gradientUnits="userSpaceOnUse">
<stop stop-color="#FBC56D"/>
<stop offset="0.5841" stop-color="#FE9738"/>
<stop offset="0.9984" stop-color="#FB2B3A"/>
</linearGradient>
<linearGradient id="paint13_linear_20_366" x1="146.768" y1="175.264" x2="202" y2="175.264" gradientUnits="userSpaceOnUse">
<stop stop-color="#EAF6FF"/>
<stop offset="0.5213" stop-color="#D8ECFE"/>
<stop offset="1" stop-color="#B3DAFE"/>
</linearGradient>
<linearGradient id="paint14_linear_20_366" x1="127.537" y1="175.264" x2="184.607" y2="175.264" gradientUnits="userSpaceOnUse">
<stop stop-color="#EAF6FF"/>
<stop offset="0.5213" stop-color="#D8ECFE"/>
<stop offset="1" stop-color="#B3DAFE"/>
</linearGradient>
<linearGradient id="paint15_linear_20_366" x1="127.537" y1="174.659" x2="184.607" y2="174.659" gradientUnits="userSpaceOnUse">
<stop stop-color="#EAF6FF"/>
<stop offset="0.5213" stop-color="#D8ECFE"/>
<stop offset="1" stop-color="#B3DAFE"/>
</linearGradient>
<linearGradient id="paint16_linear_20_366" x1="127.537" y1="162.975" x2="184.607" y2="162.975" gradientUnits="userSpaceOnUse">
<stop stop-color="#EAF6FF"/>
<stop offset="0.5213" stop-color="#D8ECFE"/>
<stop offset="1" stop-color="#B3DAFE"/>
</linearGradient>
</defs>
</svg>
