<svg width="90" height="91" viewBox="0 0 90 91" fill="none" xmlns="http://www.w3.org/2000/svg">
<path d="M45 90.8795C69.8528 90.8795 90 70.7324 90 45.8795C90 21.0267 69.8528 0.879539 45 0.879539C20.1472 0.879539 0 21.0267 0 45.8795C0 70.7324 20.1472 90.8795 45 90.8795Z" fill="url(#paint0_linear_19_323)"/>
<path d="M60.0058 46.8362C60.0058 44.2969 57.9473 42.2384 55.4082 42.2384C52.8692 42.2384 50.8106 44.2969 50.8106 46.8362C50.8106 49.3754 52.8692 51.4338 55.4082 51.4338C57.9473 51.4338 60.0058 49.3754 60.0058 46.8362Z" fill="url(#paint1_linear_19_323)"/>
<path d="M45 0.879539C43.8124 0.879539 42.6335 0.927187 41.4688 1.01719C41.4695 1.02089 41.4683 1.01436 41.469 1.01807C42.9376 1.0966 43.2971 3.1066 41.9647 3.68542C41.4459 3.9113 40.9112 4.10542 40.3641 4.26601C38.6153 4.77954 37.0059 5.63013 35.6153 6.75248C34.2229 7.87483 33.0494 9.26895 32.1776 10.8678L31.7135 11.7201C29.9682 14.9195 27.0229 17.2931 23.5271 18.3219L23.0206 18.4701C19.5247 19.499 16.5794 21.8725 14.8359 25.0719L12.3159 29.6901C11.8465 30.5513 12.9229 31.4195 13.6659 30.7807C14.8024 29.8031 16.0359 28.9507 17.3453 28.2378C18.6547 27.5248 20.04 26.9513 21.4782 26.5278L30.2065 23.9619C32.9188 23.1642 35.2041 21.3219 36.5576 18.839C37.2353 17.5984 38.1441 16.5184 39.2241 15.6466C40.3024 14.7766 41.5518 14.1166 42.9088 13.7178L51.4588 11.2031C54.1588 10.3684 55.8229 8.9266 56.8059 7.71777C57.7324 6.57601 59.3541 6.26895 60.6229 7.01013C60.6424 7.02248 60.6635 7.03307 60.6829 7.04542C62.3806 8.04072 62.6947 10.3613 61.3024 11.7537L56.3222 16.7338C55.0811 17.975 53.1923 18.2351 51.6226 17.4496C50.6086 16.9422 49.4511 16.6793 48.2273 16.7381C44.6951 16.9077 41.8385 19.8132 41.7245 23.3476C41.7028 24.021 41.7785 24.6736 41.9386 25.292C42.5921 27.8174 40.8969 30.3505 38.3351 30.8418C37.3544 31.0299 36.3512 31.1259 35.3379 31.1248C31.0759 31.1199 27.0055 32.9001 23.9919 35.9137L20.4044 39.5012C17.4265 42.479 13.3878 44.1519 9.17647 44.1519H0.0370588C0.0141176 44.7254 0 45.3007 0 45.8795C0 49.2131 0.365294 52.4584 1.05353 55.5854H5.4C9.85182 55.5854 14.1215 53.817 17.2694 50.669L17.5835 50.3548C20.7316 47.2068 25.0011 45.4384 29.4529 45.4384H39.4586C43.9106 45.4384 48.1802 43.67 51.3281 40.5219L54.591 37.2589C59.0292 32.4678 67.1133 31.9631 67.461 31.9119C75.4692 30.7437 82.7998 37.0384 82.9322 45.1295C82.9357 45.3801 82.9375 45.629 82.9375 45.8795V45.9586C82.9313 49.5413 80.6427 52.7068 77.2747 53.9287C76.2275 54.3087 75.1737 54.8711 74.1764 55.6133C70.9364 58.025 69.3399 61.5558 70.1104 64.1416C70.3946 65.0958 69.9979 66.1232 69.1099 66.5734C69.0492 66.6042 68.9899 66.6318 68.9328 66.6554C66.501 67.6631 64.2634 69.1454 62.3663 71.0425L60.2804 73.1284C56.4658 76.943 51.2861 79.0352 45.8914 79.0562C40.5535 79.077 35.4376 81.2065 31.6602 84.9837L28.7785 87.8654C32.7667 89.406 37.0267 90.3978 41.4685 90.7419H41.472C42.6367 90.8319 43.812 90.8795 44.9996 90.8795C69.852 90.8795 89.9996 70.7319 89.9996 45.8795C89.9996 21.0272 69.8524 0.879539 45 0.879539ZM73.0482 28.1707C70.5088 28.1707 68.4494 26.1131 68.4494 23.5737C68.4494 21.0342 70.5088 18.9766 73.0482 18.9766C75.5876 18.9766 77.6453 21.0342 77.6453 23.5737C77.6453 26.1131 75.5876 28.1707 73.0482 28.1707Z" fill="url(#paint2_linear_19_323)"/>
<path d="M36.3946 66.6162C38.9711 64.0398 42.4657 62.5922 46.1095 62.5922H46.6389C50.2826 62.5922 53.7773 61.1446 56.3538 58.5681L60.0731 54.8488C60.7664 54.1555 59.9797 53.018 59.0862 53.4221C56.3543 54.6581 53.3901 55.2972 50.3915 55.2972H41.2932C38.466 55.2972 35.7547 56.4203 33.7555 58.4195C31.7562 60.4188 29.0449 61.5418 26.2177 61.5418H17.3059C14.4787 61.5418 11.7674 62.6649 9.76817 64.6641L6.03317 68.3991C8.09611 71.9608 10.6343 75.2121 13.5593 78.0695L16.2778 75.351C18.8543 72.7744 22.3489 71.327 25.9929 71.327C29.6366 71.327 33.1313 69.8795 35.7078 67.3029L36.3946 66.6162Z" fill="url(#paint3_linear_19_323)"/>
<defs>
<linearGradient id="paint0_linear_19_323" x1="-1.45765" y1="45.8795" x2="89.6712" y2="45.8795" gradientUnits="userSpaceOnUse">
<stop stop-color="#FBC56D"/>
<stop offset="0.445" stop-color="#FE9738"/>
<stop offset="0.5378" stop-color="#FE8C39"/>
<stop offset="0.7008" stop-color="#FD6F39"/>
<stop offset="0.9133" stop-color="#FB403A"/>
<stop offset="0.9984" stop-color="#FB2B3A"/>
</linearGradient>
<linearGradient id="paint1_linear_19_323" x1="-31.7647" y1="46.8362" x2="72.5331" y2="46.8362" gradientUnits="userSpaceOnUse">
<stop stop-color="#FBC56D"/>
<stop offset="0.5841" stop-color="#FE9738"/>
<stop offset="0.9984" stop-color="#FB2B3A"/>
</linearGradient>
<linearGradient id="paint2_linear_19_323" x1="-31.7647" y1="45.8795" x2="72.5331" y2="45.8795" gradientUnits="userSpaceOnUse">
<stop stop-color="#FBC56D"/>
<stop offset="0.5841" stop-color="#FE9738"/>
<stop offset="0.9984" stop-color="#FB2B3A"/>
</linearGradient>
<linearGradient id="paint3_linear_19_323" x1="-31.7647" y1="65.7035" x2="72.5331" y2="65.7035" gradientUnits="userSpaceOnUse">
<stop stop-color="#FBC56D"/>
<stop offset="0.5841" stop-color="#FE9738"/>
<stop offset="0.9984" stop-color="#FB2B3A"/>
</linearGradient>
</defs>
</svg>
