<?xml version="1.0" encoding="utf-8"?>
<!-- Generator: Adobe Illustrator 25.2.1, SVG Export Plug-In . SVG Version: 6.00 Build 0)  -->
<svg version="1.1" id="Layer_1" xmlns="http://www.w3.org/2000/svg" xmlns:xlink="http://www.w3.org/1999/xlink" x="0px" y="0px"
	 viewBox="0 0 512 512" style="enable-background:new 0 0 512 512;" xml:space="preserve">
<style type="text/css">
	.st0{fill:#FFFFFF;}
</style>
<path class="st0" d="M405.3,0H106.7C47.9,0,0,47.9,0,106.7v298.7C0,464.1,47.9,512,106.7,512h248.4c27.5,0,53.3-10.7,72.7-30.1
	l54.1-54.1c19.1-19.1,30.1-45.6,30.1-72.7V106.7C512,47.9,464.1,0,405.3,0L405.3,0z M42.7,405.3V106.7c0-35.3,28.7-64,64-64h298.7
	c35.3,0,64,28.7,64,64V320H384c-35.3,0-64,28.7-64,64v85.3H106.7C71.4,469.3,42.7,440.6,42.7,405.3z M397.6,451.7
	c-9.6,9.6-21.8,15.5-35,17.1V384c0-11.8,9.6-21.3,21.3-21.3h84.8c-1.7,13.1-7.7,25.6-17.1,35L397.6,451.7L397.6,451.7z M106.7,138.7
	c0-17.7,14.3-32,32-32s32,14.3,32,32s-14.3,32-32,32S106.7,156.3,106.7,138.7z M170.7,256c0,17.7-14.3,32-32,32s-32-14.3-32-32
	s14.3-32,32-32S170.7,238.3,170.7,256z M170.7,373.3c0,17.7-14.3,32-32,32s-32-14.3-32-32s14.3-32,32-32S170.7,355.7,170.7,373.3z"
	/>
</svg>
