<svg width="139" height="140" viewBox="0 0 139 140" fill="none" xmlns="http://www.w3.org/2000/svg">
<path d="M69.5 139.88C107.884 139.88 139 108.763 139 70.3795C139 31.9958 107.884 0.879547 69.5 0.879547C31.1162 0.879547 0 31.9958 0 70.3795C0 108.763 31.1162 139.88 69.5 139.88Z" fill="url(#paint0_linear_20_355)"/>
<path d="M59.1339 27.4206C64.9714 27.4206 69.7036 22.6884 69.7036 16.8509C69.7036 11.0134 64.9714 6.28119 59.1339 6.28119C53.2964 6.28119 48.5641 11.0134 48.5641 16.8509C48.5641 22.6884 53.2964 27.4206 59.1339 27.4206Z" fill="url(#paint1_linear_20_355)"/>
<path d="M34.3191 59.6302C39.7502 59.6302 44.1529 55.2274 44.1529 49.7964C44.1529 44.3653 39.7502 39.9625 34.3191 39.9625C28.888 39.9625 24.4853 44.3653 24.4853 49.7964C24.4853 55.2274 28.888 59.6302 34.3191 59.6302Z" fill="url(#paint2_linear_20_355)"/>
<path d="M55.6649 99.1264C59.5865 99.1264 62.7656 95.9473 62.7656 92.0257C62.7656 88.1041 59.5865 84.925 55.6649 84.925C51.7433 84.925 48.5641 88.1041 48.5641 92.0257C48.5641 95.9473 51.7433 99.1264 55.6649 99.1264Z" fill="url(#paint3_linear_20_355)"/>
<path d="M45.9106 72.6551C44.7569 69.6731 41.507 68.0896 38.4406 68.9953C32.8084 70.6587 27.2933 71.9181 22.0078 72.7439C18.8893 73.2312 16.6626 76.0238 16.8582 79.1742C17.0823 82.7816 20.3616 85.4104 23.9323 84.8497C29.7558 83.9353 35.805 82.5541 41.9573 80.7375C45.383 79.7261 47.1998 75.987 45.9112 72.6559L45.9106 72.6551Z" fill="url(#paint4_linear_20_355)"/>
<path d="M69.5 0.879547C67.6657 0.879547 65.8451 0.953135 64.0463 1.09214C64.2262 1.10576 64.4115 1.12212 64.5968 1.14119C77.9681 2.46033 82.1653 19.9553 70.9609 27.3686C70.8328 27.4531 70.691 27.5485 70.5411 27.652C67.4777 29.7452 66.8835 34.0242 69.2574 36.8751C70.4975 38.3605 72.2882 39.14 74.1006 39.14C75.3244 39.14 76.559 38.7829 77.6383 38.0443C85.9756 32.3344 94.9533 23.9617 99.1806 19.7209C101.067 17.8294 104.108 17.7912 106.057 19.6173C106.082 19.6364 106.103 19.6582 106.128 19.68C107.929 21.3725 108.191 24.1525 106.747 26.1557C105.536 27.8319 104.155 29.5435 102.609 31.2688C94.7026 40.1048 83.4136 48.6083 70.165 55.7927C67.3114 57.3408 66.1531 60.8403 67.5267 63.7811C68.5733 66.0215 70.7892 67.3134 73.0895 67.3134C74.0815 67.3134 75.0927 67.0735 76.0303 66.5639C88.9464 59.5457 100.238 51.3038 108.78 42.6095C108.998 42.3888 109.426 41.92 109.982 41.2958C113.702 37.1095 120.497 38.2651 122.672 43.4272C122.693 43.4762 122.715 43.528 122.734 43.5798C123.8 46.12 123.383 49.039 121.68 51.203C120.854 52.2496 119.962 53.3071 119.011 54.3727C109.096 65.4519 93.8659 76.0104 76.1229 84.1024C75.0982 84.5685 74.0734 85.0236 73.0513 85.4679C70.0751 86.7543 68.6197 90.1366 69.7044 93.1892C69.947 93.8733 70.0642 94.5737 70.0642 95.2633C70.0642 97.8171 68.4725 100.21 65.9214 101.088C61.4107 102.638 56.9437 103.947 52.5802 104.993C48.898 105.876 46.9166 109.886 48.4156 113.366C49.3995 115.65 51.6371 117.073 54.0383 117.073C54.5125 117.073 54.9949 117.015 55.4719 116.901C65.3736 114.524 75.6923 110.946 85.8829 106.299C86.0464 106.222 86.21 106.149 86.3735 106.073C99.8892 99.8612 110.802 118.593 98.6546 127.176C88.7229 134.194 76.8724 138.672 64.0463 139.667C65.8451 139.806 67.6657 139.88 69.5 139.88C107.883 139.88 139 108.763 139 70.3795C139 31.9965 107.883 0.879547 69.5 0.879547ZM114.612 99.1253C109.183 99.1253 104.779 94.7236 104.779 89.2917C104.779 83.8626 109.183 79.4582 114.612 79.4582C120.044 79.4582 124.446 83.8626 124.446 89.2917C124.446 94.7236 120.044 99.1253 114.612 99.1253Z" fill="url(#paint5_linear_20_355)"/>
<defs>
<linearGradient id="paint0_linear_20_355" x1="-2.25125" y1="70.3795" x2="138.492" y2="70.3795" gradientUnits="userSpaceOnUse">
<stop stop-color="#FD8087"/>
<stop offset="0.5213" stop-color="#FB2B3A"/>
<stop offset="1" stop-color="#D90D80"/>
</linearGradient>
<linearGradient id="paint1_linear_20_355" x1="-26.673" y1="16.8509" x2="118.298" y2="16.8509" gradientUnits="userSpaceOnUse">
<stop stop-color="#FD8087"/>
<stop offset="0.5213" stop-color="#FB2B3A"/>
<stop offset="1" stop-color="#D90D80"/>
</linearGradient>
<linearGradient id="paint2_linear_20_355" x1="-26.673" y1="49.7964" x2="118.298" y2="49.7964" gradientUnits="userSpaceOnUse">
<stop stop-color="#FD8087"/>
<stop offset="0.5213" stop-color="#FB2B3A"/>
<stop offset="1" stop-color="#D90D80"/>
</linearGradient>
<linearGradient id="paint3_linear_20_355" x1="-26.673" y1="92.0257" x2="118.298" y2="92.0257" gradientUnits="userSpaceOnUse">
<stop stop-color="#FD8087"/>
<stop offset="0.5213" stop-color="#FB2B3A"/>
<stop offset="1" stop-color="#D90D80"/>
</linearGradient>
<linearGradient id="paint4_linear_20_355" x1="-26.673" y1="76.833" x2="118.298" y2="76.833" gradientUnits="userSpaceOnUse">
<stop stop-color="#FD8087"/>
<stop offset="0.5213" stop-color="#FB2B3A"/>
<stop offset="1" stop-color="#D90D80"/>
</linearGradient>
<linearGradient id="paint5_linear_20_355" x1="-26.673" y1="70.3795" x2="118.298" y2="70.3795" gradientUnits="userSpaceOnUse">
<stop stop-color="#FD8087"/>
<stop offset="0.5213" stop-color="#FB2B3A"/>
<stop offset="1" stop-color="#D90D80"/>
</linearGradient>
</defs>
</svg>
