<?xml version="1.0" encoding="utf-8"?>
<!-- Generator: Adobe Illustrator 25.2.1, SVG Export Plug-In . SVG Version: 6.00 Build 0)  -->
<svg version="1.1" id="Outline" xmlns="http://www.w3.org/2000/svg" xmlns:xlink="http://www.w3.org/1999/xlink" x="0px" y="0px"
	 viewBox="0 0 512 512" style="enable-background:new 0 0 512 512;" xml:space="preserve">
<style type="text/css">
	.st0{fill:#FFFFFF;}
</style>
<circle class="st0" cx="149.3" cy="469.3" r="42.7"/>
<circle class="st0" cx="362.7" cy="469.3" r="42.7"/>
<path class="st0" d="M490.7,64H448V21.3C448,9.6,438.4,0,426.7,0c-11.8,0-21.3,9.6-21.3,21.3V64h-42.7c-11.8,0-21.3,9.6-21.3,21.3
	s9.6,21.3,21.3,21.3h42.7v42.7c0,11.8,9.6,21.3,21.3,21.3c11.8,0,21.3-9.6,21.3-21.3v-42.7h42.7c11.8,0,21.3-9.6,21.3-21.3
	S502.4,64,490.7,64z"/>
<path class="st0" d="M464.4,207.5c-11.5-2.2-22.6,5.4-24.7,16.9c0,0.1,0,0.2,0,0.3c-5.5,30.5-32,52.6-63,52.7H115.6L95.5,106.7
	h181.8c11.8,0,21.3-9.6,21.3-21.3S289.1,64,277.3,64H90.5l-0.9-7.5C85.8,24.3,58.5,0,26.1,0h-4.7C9.6,0,0,9.6,0,21.3
	s9.6,21.3,21.3,21.3h4.7c10.8,0,19.9,8.1,21.2,18.8l29.4,249.6c6.3,53.7,51.8,94.2,105.9,94.2h222.8c11.8,0,21.3-9.6,21.3-21.3
	c0-11.8-9.6-21.3-21.3-21.3H182.5c-27.1,0-51.3-17.1-60.4-42.7h254.5c51.6,0,95.8-36.9,105-87.7
	C483.8,220.7,476.1,209.6,464.4,207.5C464.5,207.5,464.5,207.5,464.4,207.5z"/>
</svg>
